<svg width="16" height="16" viewBox="0 0 16 16" fill="none" xmlns="http://www.w3.org/2000/svg">
<path fill-rule="evenodd" clip-rule="evenodd" d="M15.2 8.00004C15.2 9.58134 14.6903 11.0435 13.8261 12.2313C12.942 13.4465 11.687 14.3744 10.2275 14.8488C9.52611 15.0768 8.7774 15.2 7.99999 15.2C7.22258 15.2 6.47764 15.0774 5.77776 14.8506C4.31782 14.3773 3.06225 13.4503 2.17731 12.236C1.31218 11.0489 0.801303 9.58702 0.799988 8.00596V8.00004C0.799988 6.42088 1.30831 4.96052 2.1704 3.7736C3.05346 2.55757 4.3077 1.62864 5.76674 1.15303C6.46983 0.923899 7.22044 0.800003 7.99999 0.800003C8.77954 0.800003 9.51822 0.921926 10.2165 1.1476C11.6769 1.61967 12.9332 2.54557 13.8191 3.75913C14.6852 4.94564 15.1974 6.40707 15.1999 7.98804C15.2 7.99207 15.2 7.99602 15.2 8.00004Z" fill="url(#paint0_radial_567_6983)"/>
<path d="M10.2165 1.1476L9.45788 3.49447C10.3984 3.79842 11.2398 4.40894 11.827 5.2134L13.8191 3.75912C12.9332 2.54556 11.6769 1.61967 10.2165 1.1476ZM5.76674 1.15302C4.3077 1.62863 3.05346 2.55757 2.1704 3.77359L4.16597 5.22286C4.75133 4.41691 5.59122 3.80434 6.53108 3.49801L5.76674 1.15302ZM15.1999 7.98804L12.7336 7.99297V8.00004C12.7336 9.00782 12.4217 9.96923 11.8316 10.7803L13.8261 12.2313C14.6903 11.0435 15.2 9.58134 15.2 8.00004C15.2 7.99601 15.2 7.99207 15.1999 7.98804ZM3.26639 8.00399L0.799988 8.00596C0.801303 9.58701 1.31218 11.0489 2.17731 12.236L4.17057 10.7834C3.57987 9.97284 3.26721 9.01176 3.26639 8.00399ZM9.46511 12.5032C8.99469 12.6561 8.50174 12.7336 7.99999 12.7336C7.49824 12.7336 7.00767 12.6565 6.53832 12.5044L5.77776 14.8506C6.47764 15.0774 7.22455 15.2 7.99999 15.2C8.77542 15.2 9.52611 15.0768 10.2275 14.8488L9.46511 12.5032Z" fill="#025FFA"/>
<path d="M10.2165 1.1476L9.45788 3.49447C10.3984 3.79842 11.2398 4.40894 11.827 5.2134L13.8191 3.75912C12.9332 2.54556 11.6769 1.61967 10.2165 1.1476ZM5.76674 1.15302C4.3077 1.62863 3.05346 2.55757 2.1704 3.77359L4.16597 5.22286C4.75133 4.41691 5.59122 3.80434 6.53108 3.49801L5.76674 1.15302ZM15.1999 7.98804L12.7336 7.99297V8.00004C12.7336 9.00782 12.4217 9.96923 11.8316 10.7803L13.8261 12.2313C14.6903 11.0435 15.2 9.58134 15.2 8.00004C15.2 7.99601 15.2 7.99207 15.1999 7.98804ZM3.26639 8.00399L0.799988 8.00596C0.801303 9.58701 1.31218 11.0489 2.17731 12.236L4.17057 10.7834C3.57987 9.97284 3.26721 9.01176 3.26639 8.00399ZM9.46511 12.5032C8.99469 12.6561 8.50174 12.7336 7.99999 12.7336C7.49824 12.7336 7.00767 12.6565 6.53832 12.5044L5.77776 14.8506C6.47764 15.0774 7.22455 15.2 7.99999 15.2C8.77542 15.2 9.52611 15.0768 10.2275 14.8488L9.46511 12.5032Z" fill="url(#paint1_linear_567_6983)"/>
<path d="M6.60105 6.76356C6.58284 6.73893 6.60068 6.70432 6.63158 6.70432H10.898C10.9214 6.70432 10.9391 6.72502 10.9353 6.74775L10.7589 7.78792C10.7559 7.80589 10.7401 7.81905 10.7217 7.81905H7.40034C7.38827 7.81905 7.37692 7.81336 7.3698 7.80374L6.60105 6.76356Z" fill="#025FFA"/>
<path d="M6.60105 6.76356C6.58284 6.73893 6.60068 6.70432 6.63158 6.70432H10.898C10.9214 6.70432 10.9391 6.72502 10.9353 6.74775L10.7589 7.78792C10.7559 7.80589 10.7401 7.81905 10.7217 7.81905H7.40034C7.38827 7.81905 7.37692 7.81336 7.3698 7.80374L6.60105 6.76356Z" fill="url(#paint2_linear_567_6983)"/>
<path d="M9.39902 9.23641C9.41723 9.26105 9.39939 9.29566 9.36848 9.29566H5.10207C5.07871 9.29566 5.06094 9.27496 5.0648 9.25223L5.24112 8.21205C5.24416 8.19409 5.25993 8.18092 5.27839 8.18092H8.59972C8.6118 8.18092 8.62315 8.18661 8.63026 8.19624L9.39902 9.23641Z" fill="#025FFA"/>
<path d="M9.39902 9.23641C9.41723 9.26105 9.39939 9.29566 9.36848 9.29566H5.10207C5.07871 9.29566 5.06094 9.27496 5.0648 9.25223L5.24112 8.21205C5.24416 8.19409 5.25993 8.18092 5.27839 8.18092H8.59972C8.6118 8.18092 8.62315 8.18661 8.63026 8.19624L9.39902 9.23641Z" fill="url(#paint3_linear_567_6983)"/>
<defs>
<radialGradient id="paint0_radial_567_6983" cx="0" cy="0" r="1" gradientUnits="userSpaceOnUse" gradientTransform="translate(1.50353 -2.1376) rotate(55.2766) scale(34.2944 46.9563)">
<stop offset="0.124131" stop-color="#253743"/>
<stop offset="0.657125" stop-color="#030C18"/>
</radialGradient>
<linearGradient id="paint1_linear_567_6983" x1="2.5321" y1="3.28503" x2="13.0328" y2="13.1577" gradientUnits="userSpaceOnUse">
<stop stop-color="#C9FF6B"/>
<stop offset="1" stop-color="#8CCF18"/>
</linearGradient>
<linearGradient id="paint2_linear_567_6983" x1="5.77053" y1="7.09847" x2="7.28626" y2="10.2495" gradientUnits="userSpaceOnUse">
<stop stop-color="#C9FF6B"/>
<stop offset="1" stop-color="#8CCF18"/>
</linearGradient>
<linearGradient id="paint3_linear_567_6983" x1="5.77053" y1="7.09847" x2="7.28626" y2="10.2495" gradientUnits="userSpaceOnUse">
<stop stop-color="#C9FF6B"/>
<stop offset="1" stop-color="#8CCF18"/>
</linearGradient>
</defs>
</svg>
